<?xml version="1.0" standalone="no"?>
<!DOCTYPE svg PUBLIC "-//W3C//DTD SVG 20010904//EN"
 "http://www.w3.org/TR/2001/REC-SVG-20010904/DTD/svg10.dtd">
<svg version="1.0" xmlns="http://www.w3.org/2000/svg"
 width="600.000000pt" height="600.000000pt" viewBox="0 0 600.000000 600.000000"
 preserveAspectRatio="xMidYMid meet">
<metadata>
Created by potrace 1.11, written by Peter Selinger 2001-2013
</metadata>
<g transform="translate(0.000000,600.000000) scale(0.100000,-0.100000)"
fill="#000000" stroke="none">
<path d="M2920 5762 c-19 -2 -39 -7 -45 -11 -5 -5 -23 -11 -39 -15 -79 -19
-192 -116 -251 -217 -33 -57 -65 -173 -65 -239 0 -60 33 -173 66 -230 37 -63
136 -166 169 -176 11 -4 27 -12 35 -19 8 -6 40 -20 70 -30 63 -20 244 -25 263
-6 6 6 20 11 31 11 34 1 132 62 190 118 33 32 68 82 92 129 l39 76 0 136 0
136 -40 74 c-44 81 -132 177 -182 197 -17 8 -34 18 -37 23 -4 5 -21 13 -39 16
-17 4 -37 11 -43 16 -12 10 -159 18 -214 11z"/>
<path d="M1755 5449 c-114 -22 -252 -122 -311 -229 -47 -83 -64 -148 -64 -240
0 -135 44 -239 145 -341 74 -74 140 -109 248 -129 81 -16 93 -16 175 0 97 18
136 35 202 89 90 73 151 160 166 236 3 19 10 38 15 41 5 3 9 46 9 95 0 142
-43 247 -144 349 -113 114 -270 160 -441 129z"/>
<path d="M4045 5449 c-75 -12 -167 -63 -232 -128 -51 -52 -77 -92 -125 -195
-8 -19 -13 -70 -13 -150 l0 -121 40 -79 c46 -92 125 -177 206 -221 32 -17 90
-36 142 -46 84 -15 93 -15 175 2 116 23 186 61 262 142 45 47 97 136 105 180
4 20 11 40 16 43 5 3 9 50 9 104 0 54 -4 101 -9 104 -5 3 -12 23 -16 43 -4 21
-22 63 -41 93 -116 188 -295 267 -519 229z m220 -77 c84 -29 129 -58 186 -120
84 -90 118 -205 100 -333 -12 -88 -50 -164 -110 -224 -51 -51 -140 -105 -172
-105 -10 0 -21 -4 -24 -10 -3 -5 -46 -10 -95 -10 -49 0 -92 5 -95 10 -3 6 -13
10 -22 10 -33 0 -123 52 -170 97 -67 66 -102 133 -114 218 -12 81 -12 73 0
150 14 103 85 211 175 271 91 59 244 80 341 46z"/>
<path d="M975 4621 c-11 -4 -42 -11 -69 -15 -103 -16 -249 -124 -305 -228
-104 -191 -73 -418 78 -568 118 -118 257 -165 418 -141 155 23 286 122 360
271 38 75 38 75 38 201 0 75 -5 136 -12 150 -6 13 -21 46 -33 72 -21 46 -78
111 -145 167 -46 38 -113 68 -185 80 -101 19 -123 20 -145 11z m177 -90 c72
-25 101 -44 164 -106 59 -60 88 -115 107 -207 13 -60 13 -77 -2 -151 -36 -181
-154 -296 -334 -326 -132 -22 -259 19 -351 114 -67 70 -71 75 -87 121 -7 21
-17 45 -23 52 -12 17 -12 205 0 234 66 148 133 216 262 267 66 26 191 27 264
2z"/>
<path d="M4959 4626 c-4 -4 -35 -11 -70 -17 -54 -9 -141 -41 -159 -59 -3 -3
-23 -18 -44 -34 -61 -45 -92 -84 -133 -166 l-38 -75 0 -130 c0 -116 3 -136 24
-185 140 -318 542 -398 785 -156 125 124 168 288 125 471 -9 38 -35 97 -52
120 -114 154 -189 198 -397 231 -19 3 -38 3 -41 0z"/>
<path d="M2933 4563 c-101 -69 -201 -235 -228 -376 -19 -102 -19 -286 0 -379
25 -117 35 -148 48 -148 7 0 35 23 62 50 l50 51 1 79 c3 168 70 358 138 395
43 23 83 13 104 -25 20 -37 10 -143 -20 -218 -59 -143 -113 -209 -334 -403
-217 -191 -403 -419 -455 -558 -59 -160 -66 -290 -21 -424 68 -201 253 -385
462 -459 56 -19 85 -22 212 -23 80 0 150 3 153 7 4 4 1 33 -6 65 l-14 58 -80
-3 c-208 -9 -418 96 -492 246 -24 49 -28 68 -27 137 2 189 112 370 351 577
180 156 243 219 299 304 102 154 154 322 154 504 1 112 -9 170 -50 292 -79
235 -193 328 -307 251z"/>
<path d="M618 3470 c-76 -13 -173 -67 -241 -135 -108 -107 -142 -201 -135
-371 3 -88 8 -107 38 -169 42 -88 142 -191 220 -227 30 -14 91 -33 136 -41 74
-14 87 -14 171 3 145 29 236 92 318 219 54 83 69 155 63 290 -4 85 -9 107 -37
164 -42 85 -136 182 -220 225 -91 46 -199 61 -313 42z"/>
<path d="M5191 3469 c-113 -19 -271 -139 -324 -246 -59 -117 -72 -245 -37
-363 34 -113 136 -234 243 -288 58 -29 218 -69 236 -58 4 3 38 10 76 16 37 6
92 22 122 37 69 32 183 144 212 209 13 27 28 60 34 73 7 14 12 75 12 151 l0
128 -40 77 c-106 206 -301 302 -534 264z m168 -70 c86 -13 161 -51 219 -107
64 -63 98 -127 115 -220 26 -135 -13 -260 -112 -361 -56 -58 -82 -74 -157
-101 -145 -50 -311 -10 -425 104 -27 27 -49 53 -49 59 0 6 -6 18 -13 26 -31
37 -50 115 -50 204 0 49 5 99 10 110 76 173 176 261 323 286 30 5 60 9 65 10
6 0 39 -4 74 -10z"/>
<path d="M2950 3257 c-14 -12 -38 -32 -55 -43 l-29 -21 18 -67 c10 -37 17 -68
15 -70 -2 -1 -28 -17 -57 -35 -100 -63 -181 -178 -201 -286 -11 -57 2 -151 26
-199 62 -122 211 -215 299 -186 45 15 44 37 -7 85 -47 45 -79 106 -79 150 0
45 33 108 71 138 l34 26 21 -82 c12 -45 47 -181 78 -302 32 -121 73 -268 91
-327 58 -181 67 -296 28 -373 -18 -35 -51 -73 -75 -86 -14 -8 -14 -5 2 29 30
63 33 114 10 176 -68 181 -329 235 -489 100 -77 -65 -110 -181 -76 -270 72
-190 373 -272 602 -165 85 40 173 128 196 195 32 92 16 237 -48 451 -34 113
-185 657 -185 668 0 13 40 7 78 -12 45 -23 77 -56 92 -96 18 -47 13 -155 -11
-228 l-21 -64 21 -73 c11 -40 23 -75 26 -78 12 -12 82 34 140 93 34 34 72 86
89 120 84 174 47 389 -94 534 -99 100 -193 140 -337 141 l-72 0 -15 53 c-8 28
-19 68 -23 87 -11 42 -29 47 -63 17z"/>
<path d="M965 2333 c-51 -6 -135 -34 -182 -61 -93 -52 -202 -190 -219 -277 -3
-19 -10 -38 -15 -41 -5 -3 -9 -43 -9 -90 0 -86 19 -165 60 -243 42 -81 180
-199 256 -217 16 -4 35 -11 42 -17 22 -18 211 -13 265 6 152 54 236 136 318
311 10 20 14 69 14 155 -1 123 -1 128 -34 196 -43 87 -146 192 -223 229 -30
14 -61 26 -69 26 -8 0 -19 4 -24 9 -12 10 -136 20 -180 14z m237 -111 c74 -36
152 -113 187 -186 20 -40 44 -148 43 -187 -2 -46 -26 -146 -44 -181 -33 -64
-112 -142 -180 -179 -62 -33 -65 -34 -183 -34 -110 0 -125 2 -178 27 -93 45
-163 125 -220 255 -14 31 -14 204 -1 234 69 155 151 236 284 280 14 5 70 7
125 6 89 -3 107 -6 167 -35z"/>
<path d="M4920 2333 c-24 -2 -49 -8 -55 -12 -5 -5 -26 -11 -46 -15 -21 -4 -42
-13 -49 -21 -7 -8 -19 -15 -26 -15 -8 0 -47 -33 -88 -72 -51 -51 -83 -94 -107
-143 -33 -68 -34 -72 -34 -201 l0 -131 39 -76 c39 -78 132 -182 180 -202 12
-5 29 -15 37 -21 62 -49 257 -63 365 -27 152 52 275 182 315 333 25 96 12 246
-29 330 -35 73 -144 193 -187 206 -11 4 -27 12 -35 19 -40 32 -183 57 -280 48z"/>
<path d="M1770 1491 c-109 -17 -248 -112 -316 -217 -97 -150 -100 -358 -7
-507 33 -52 126 -142 179 -171 141 -79 328 -78 469 1 51 28 175 148 175 168 0
8 6 20 13 27 30 30 57 143 57 236 0 50 -4 93 -9 96 -5 4 -12 23 -16 45 -8 50
-73 149 -135 204 -27 24 -82 60 -122 80 -62 30 -88 36 -158 41 -47 2 -105 1
-130 -3z"/>
<path d="M4065 1491 c-50 -8 -145 -43 -145 -53 0 -5 -7 -8 -16 -8 -28 0 -147
-125 -178 -187 -16 -32 -34 -67 -39 -78 -6 -11 -13 -66 -15 -123 -4 -88 -1
-113 18 -170 69 -204 249 -335 460 -335 137 0 239 44 339 146 65 66 106 133
117 192 3 19 10 38 15 41 5 3 9 50 9 104 0 54 -4 101 -9 104 -5 3 -12 21 -15
40 -21 112 -154 250 -293 305 -54 21 -184 33 -248 22z"/>
<path d="M2989 1196 c-3 -3 -38 -10 -78 -17 -186 -28 -350 -199 -382 -397 -32
-197 74 -402 258 -500 125 -66 311 -66 436 0 84 45 175 139 217 224 34 68 35
71 35 204 0 132 -1 136 -32 201 -68 136 -208 247 -339 268 -38 6 -78 13 -89
17 -11 3 -23 3 -26 0z m131 -91 c73 -25 122 -55 170 -104 65 -67 96 -126 114
-217 15 -73 15 -85 -2 -159 -28 -127 -99 -219 -218 -283 -23 -12 -51 -22 -62
-22 -12 0 -24 -4 -27 -10 -8 -13 -172 -13 -180 0 -3 6 -16 10 -28 10 -58 0
-185 98 -234 180 -74 123 -74 297 0 420 24 41 100 118 141 144 82 52 235 71
326 41z"/>
</g>
</svg>
