<?xml version="1.0" standalone="no"?>
<!DOCTYPE svg PUBLIC "-//W3C//DTD SVG 20010904//EN"
 "http://www.w3.org/TR/2001/REC-SVG-20010904/DTD/svg10.dtd">
<svg version="1.0" xmlns="http://www.w3.org/2000/svg"
 width="600.000000pt" height="600.000000pt" viewBox="0 0 600.000000 600.000000"
 preserveAspectRatio="xMidYMid meet">
<metadata>
Created by potrace 1.11, written by Peter Selinger 2001-2013
</metadata>
<g transform="translate(0.000000,600.000000) scale(0.100000,-0.100000)"
fill="#000000" stroke="none">
<path d="M2893 5745 c-113 -25 -225 -105 -290 -209 -148 -233 -56 -553 194
-673 187 -90 411 -49 547 98 67 72 100 134 122 226 46 197 -46 401 -231 510
-99 58 -218 75 -342 48z"/>
<path d="M1705 5426 c-96 -34 -149 -73 -216 -156 -72 -88 -99 -170 -99 -296 0
-261 206 -465 470 -465 135 0 240 44 336 141 92 93 134 195 134 331 0 204
-123 377 -317 445 -91 32 -221 32 -308 0z"/>
<path d="M3992 5426 c-329 -123 -422 -531 -177 -780 154 -156 401 -184 586
-66 138 89 219 237 219 400 0 168 -81 311 -230 405 -109 69 -276 86 -398 41z
m221 -36 c178 -26 317 -166 346 -350 36 -222 -122 -438 -342 -469 -167 -24
-302 30 -400 158 -77 100 -104 231 -73 351 21 82 53 136 117 199 73 72 153
107 274 120 6 0 41 -4 78 -9z"/>
<path d="M960 4609 c-61 -7 -149 -38 -195 -69 -64 -42 -134 -123 -172 -199
-37 -75 -38 -78 -38 -191 0 -90 4 -126 19 -165 57 -146 181 -262 320 -298 77
-20 185 -21 252 -1 208 59 346 240 347 454 0 138 -43 242 -138 336 -111 108
-240 152 -395 133z m152 -60 c227 -48 372 -282 314 -507 -82 -320 -487 -425
-708 -183 -63 68 -94 134 -108 227 -44 283 217 523 502 463z"/>
<path d="M4920 4609 c-241 -31 -427 -258 -406 -494 11 -130 52 -219 140 -307
64 -64 128 -100 215 -123 242 -62 482 70 569 314 26 72 23 231 -5 303 -83 213
-289 337 -513 307z"/>
<path d="M2973 4578 c-42 -11 -134 -106 -183 -188 -69 -116 -85 -189 -85 -385
0 -133 4 -186 19 -245 10 -41 23 -79 27 -85 6 -6 27 8 56 37 l47 47 2 84 c6
216 96 411 189 411 101 0 112 -151 25 -323 -48 -96 -114 -175 -221 -266 -137
-116 -344 -327 -421 -429 -157 -208 -207 -424 -144 -623 63 -195 237 -373 444
-451 61 -24 81 -26 214 -27 80 0 149 3 152 6 4 3 1 28 -5 56 l-12 49 -106 1
c-155 0 -274 44 -382 140 -91 82 -120 160 -108 288 17 175 134 355 357 547
226 196 275 252 351 404 49 98 79 208 91 334 11 117 -1 212 -41 334 -71 214
-162 311 -266 284z"/>
<path d="M580 3451 c-86 -28 -136 -57 -193 -114 -149 -149 -186 -356 -98 -542
78 -165 240 -266 426 -266 360 0 584 373 416 696 -33 63 -127 157 -188 189
-115 58 -255 72 -363 37z"/>
<path d="M5155 3451 c-83 -28 -136 -60 -196 -120 -194 -194 -184 -500 21 -684
95 -85 183 -118 315 -118 143 0 263 54 356 159 99 112 136 276 99 432 -25 105
-119 229 -217 287 -104 61 -270 80 -378 44z m255 -53 c110 -33 210 -120 262
-227 30 -61 32 -74 32 -171 1 -97 -2 -110 -31 -173 -82 -174 -266 -272 -450
-238 -270 49 -422 338 -309 586 83 181 304 280 496 223z"/>
<path d="M2928 3232 c-48 -38 -56 -59 -39 -104 25 -70 25 -73 -37 -111 -78
-48 -137 -114 -175 -195 -56 -119 -40 -247 45 -354 59 -75 165 -126 235 -113
46 8 42 28 -16 90 -54 57 -77 115 -66 168 9 43 47 100 84 126 l29 21 11 -32
c5 -18 42 -156 81 -307 40 -151 86 -322 105 -380 35 -113 57 -230 51 -271 -13
-98 -39 -148 -99 -191 -47 -34 -58 -31 -29 6 25 32 45 122 36 161 -32 133
-149 211 -303 202 -116 -7 -207 -63 -252 -154 -31 -66 -24 -169 17 -227 65
-92 174 -146 314 -154 143 -9 273 33 364 117 124 114 127 229 17 610 -80 278
-173 632 -167 637 3 3 21 2 40 -1 46 -9 117 -63 138 -106 26 -50 24 -162 -3
-245 -22 -65 -22 -66 -4 -128 10 -34 22 -66 26 -70 18 -22 130 67 182 146 58
88 80 166 75 272 -6 111 -32 183 -97 268 -52 68 -151 140 -216 159 -22 6 -83
14 -135 17 l-95 6 -24 88 c-14 48 -29 87 -35 86 -6 0 -32 -17 -58 -37z"/>
<path d="M942 2319 c-85 -11 -181 -60 -251 -129 -151 -149 -184 -367 -84 -563
33 -67 131 -160 206 -196 183 -89 397 -53 541 92 97 96 140 201 139 337 -1
163 -75 296 -215 390 -94 62 -207 86 -336 69z m202 -65 c204 -70 326 -271 288
-475 -28 -150 -144 -280 -290 -324 -64 -20 -187 -19 -248 2 -126 42 -233 151
-271 276 -66 220 59 452 281 522 59 19 183 18 240 -1z"/>
<path d="M4912 2319 c-94 -12 -182 -57 -256 -132 -101 -100 -139 -192 -140
-332 0 -184 90 -333 254 -419 255 -134 567 -8 667 270 24 68 24 231 -1 299
-77 219 -288 344 -524 314z"/>
<path d="M1745 1475 c-73 -16 -138 -51 -204 -111 -194 -175 -205 -485 -23
-672 100 -103 197 -143 342 -143 143 0 241 40 337 138 152 157 179 403 63 583
-110 171 -310 251 -515 205z"/>
<path d="M4040 1476 c-86 -18 -150 -54 -221 -125 -100 -100 -141 -196 -142
-331 0 -288 248 -507 533 -471 326 42 507 392 356 688 -38 77 -131 167 -208
203 -105 49 -206 61 -318 36z"/>
<path d="M2853 1160 c-136 -48 -252 -164 -296 -295 -58 -169 -14 -360 111
-484 97 -98 198 -140 332 -141 219 0 393 130 461 345 17 54 17 189 0 250 -32
112 -109 216 -208 278 -106 67 -284 88 -400 47z m220 -40 c132 -19 249 -109
310 -237 30 -63 32 -76 32 -173 0 -98 -2 -110 -32 -173 -60 -127 -186 -221
-315 -237 -194 -23 -358 65 -444 236 -27 55 -29 67 -29 174 0 103 3 121 26
170 14 30 49 80 77 111 77 84 163 124 297 138 6 0 41 -4 78 -9z"/>
</g>
</svg>
